<?xml version="1.0" encoding="UTF-8"?>
<svg width="600px" height="240px" viewBox="0 0 600 240" version="1.1" xmlns="http://www.w3.org/2000/svg" xmlns:xlink="http://www.w3.org/1999/xlink">
    <!-- Generator: Sketch 62 (91390) - https://sketch.com -->
    <title>Rectangle</title>
    <desc>Created with Sketch.</desc>
    <g id="Page-1" stroke="none" stroke-width="1" fill="none" fill-rule="evenodd">
        <g id="logo-white" transform="translate(118.000000, 68.000000)" fill-rule="nonzero">
            <path d="M31.18187,63.0363496 C21.8979475,63.0363496 14.9013683,65.914216 10.1584949,72.5734648 L10.1584949,28.9035162 C10.1584949,28.6638888 10.0628088,28.4340759 9.89248638,28.2646338 C9.722164,28.0951916 9.49115728,28 9.25028506,28 L0.908209806,28 C0.406619381,28 0,28.404518 0,28.9035162 L0,129.863083 C0,130.362082 0.406619381,130.766599 0.908209806,130.766599 L9.25028506,130.766599 C9.75187549,130.766599 10.1584949,130.362082 10.1584949,129.863083 L10.1584949,122.166464 C12.4738215,125.388521 15.6081087,127.940735 19.2405929,129.561911 C23.0045567,131.197364 27.0748364,132.018619 31.18187,131.971288 C39.0669525,132.349731 46.6618098,128.969591 51.6334094,122.869199 C56.5444698,116.80114 59,108.301395 59,97.3699644 C59,86.4385341 56.5668947,77.9834074 51.7006842,72.0045843 C46.6772302,65.9478142 39.0639212,62.6202368 31.18187,63.0363496 L31.18187,63.0363496 Z M44.6368301,115.440288 C41.4613305,119.739489 36.2969428,122.1253 30.9464082,121.764901 C25.3945992,122.268632 19.9200361,120.193862 16.1123147,116.143023 C13.0176739,112.395104 11.4703535,106.148572 11.4703535,97.403428 C11.4703535,88.6582837 12.972824,82.4563702 15.9777651,78.7976874 C18.9827062,75.1166956 23.8937666,73.2761996 30.7109464,73.2761996 C36.0651291,72.8600621 41.2832573,75.0866324 44.6704675,79.2327137 C48.0537103,84.6313613 49.6316035,90.9571741 49.1778791,97.3030373 C49.5579766,103.672374 47.9609706,110.004021 44.6031927,115.440288 L44.6368301,115.440288 Z" id="Shape" fill="#FFFFFF"></path>
            <path d="M211.649249,63.0719207 C199.507508,63.0719207 192.209009,68.6990989 190.157357,72.5175412 L190.157357,65.1821125 C190.157357,64.6826439 189.750784,64.2777446 189.249249,64.2777446 L180.908108,64.2777446 C180.406574,64.2777446 180,64.6826439 180,65.1821125 L180,130.095632 C180,130.595101 180.406574,131 180.908108,131 L189.249249,131 C189.750784,131 190.157357,130.595101 190.157357,130.095632 L190.157357,96.9019799 C190.157357,88.2155819 191.782983,81.9854918 195.034234,78.2117096 C198.901737,73.7929738 204.555192,71.334384 210.438438,71.5126879 C214.725077,71.1434433 218.967498,72.6045206 222.109309,75.5321009 C224.84776,78.9717077 226.181125,83.3142131 225.842643,87.6908252 L225.842643,130.095632 C225.842643,130.595101 226.249216,131 226.750751,131 L235.091892,131 C235.593426,131 236,130.595101 236,130.095632 L236,87.4898545 C236,78.9820971 233.95956,72.7855021 229.878679,68.9000695 C224.796764,64.6662577 218.256121,62.5751423 211.649249,63.0719207 L211.649249,63.0719207 Z" id="Path" fill="#FFFFFF"></path>
            <path d="M295.451982,66.1625753 C293.290272,65.249904 291.041676,64.5562388 288.740244,64.0920837 C285.575754,63.4082105 282.347151,63.0611771 279.108902,63.056838 C270.457883,62.5167043 262.01614,65.8475439 256.087643,72.1402848 C250.695881,78.1959161 248,86.7895693 248,97.9212444 C248,109.05292 250.651136,117.435071 255.953409,123.067698 C261.745157,129.192052 269.967733,132.445473 278.404169,131.950775 C284.047215,132.091347 289.648143,130.949213 294.780808,128.611273 C295.087139,128.460041 295.281819,128.150073 295.284188,127.809792 L295.284188,120.897022 C295.279282,120.607005 295.134471,120.337046 294.895059,120.171598 C294.655647,120.006151 294.35087,119.965419 294.076075,120.062146 C289.010687,122.06148 283.618283,123.114324 278.169258,123.167884 C272.449517,123.509515 266.93148,121.007863 263.436995,116.488878 C259.782319,110.920916 258.039676,104.32414 258.47031,97.6874792 C258.47031,80.4556462 265.260351,71.8397296 278.840432,71.8397296 C281.203037,71.8757652 283.554732,72.1668938 285.854197,72.7080003 C288.054807,73.1925784 290.218953,73.8286132 292.331024,74.6115167 C292.553229,74.6967103 292.800771,74.6878273 293.016232,74.5869281 C293.231694,74.4860288 293.396354,74.3018808 293.472019,74.0771963 L295.988921,67.1310311 C296.053298,66.7240522 295.832281,66.3254118 295.451982,66.1625753 Z" id="Path" fill="#FFFFFF"></path>
            <path d="M161.40103,67.2417043 C157.561154,63.7472348 151.66739,62 143.71974,62 C139.753759,62.0030941 135.804203,62.5047306 131.9657,63.4928905 C128.484248,64.3758405 125.114272,65.6445022 121.919513,67.2748796 C121.514658,67.4941989 121.341461,67.9803525 121.517665,68.4028413 L123.962238,74.4407538 C124.057681,74.6626317 124.239408,74.8370037 124.466308,74.9244203 C124.693207,75.011837 124.946103,75.0049107 125.16778,74.9052086 C130.748977,72.0779021 136.886306,70.4927587 143.150456,70.2606605 C147.116057,69.9119077 151.042206,71.2648036 153.933364,73.976299 C155.758845,76.3641481 156.809783,79.2446579 156.94722,82.2369595 L147.604266,82.2369595 C143.045426,82.1216948 138.5043,82.8415066 134.209349,84.3601815 C129.894697,85.9662918 126.002434,88.5180598 122.82367,91.8246337 C117.839165,97.1228804 115.39889,104.290894 116.126211,111.497612 C116.734825,117.997969 120.296478,123.87062 125.804039,127.454953 C129.998786,130.413779 135.020721,132.002582 140.170087,131.999987 L140.170087,131.999987 C142.885828,132.002781 145.581811,131.542673 148.140062,130.639786 C151.573776,129.433729 154.711848,127.523206 157.349068,125.033152 L157.349068,129.909928 C157.349068,130.404628 157.753872,130.805662 158.253224,130.805662 L166.089251,130.805662 C166.588603,130.805662 166.993408,130.404628 166.993408,129.909928 L166.993408,84.4928828 C167.127357,76.7630278 165.218581,70.7251153 161.40103,67.2417043 Z M157.483017,102.009464 C157.483017,110.601878 153.129669,120.023676 144.45646,123.075807 C139.754643,124.66047 134.570397,123.907361 130.525747,121.052111 C127.031658,118.335468 124.865246,114.277599 124.56513,109.887381 C124.265014,105.497163 125.859384,101.186974 128.951844,98.0284229 C131.231264,95.6805669 134.011484,93.867022 137.089256,92.720368 C140.424295,91.5762792 143.942843,91.0477913 147.470317,91.1611269 L157.516504,91.1611269 C157.516504,91.1611269 157.483017,102.009464 157.483017,102.009464 L157.483017,102.009464 Z" id="Shape" fill="#FFFFFF"></path>
            <path d="M108.135608,64.4723081 C105.767594,64.1387682 103.378551,63.9814865 100.987752,64.0017318 C89.2187227,64.4386955 81.040245,72.1023659 81.040245,72.8754554 C81.040245,70.4217364 81.040245,68.3713684 81.040245,66.1529375 C81.040245,65.6517171 80.6383588,65.2453976 80.1426072,65.2453976 L71.8976378,65.2453976 C71.4018861,65.2453976 71,65.6517171 71,66.1529375 L71,131.09246 C71,131.593681 71.4018861,132 71.8976378,132 L80.1426072,132 C80.6383588,132 81.040245,131.593681 81.040245,131.09246 L81.040245,96.1017546 C80.8456965,90.0926173 82.8859971,84.2280069 86.7585302,79.6651984 C90.0920172,75.4374035 95.1413572,72.9652288 100.489064,72.9426806 C102.61238,72.9688608 104.728054,73.205278 106.805774,73.648545 C107.044317,73.697499 107.292297,73.646412 107.492875,73.5069934 C107.693453,73.3675749 107.82943,73.1517793 107.869641,72.909068 L109,65.3462354 C108.982888,64.8709293 108.605728,64.4896089 108.135608,64.4723081 Z" id="Path" fill="#FFFFFF"></path>
            <path d="M357.883256,68.9867424 C352.863788,64.7791905 346.413184,62.7036965 339.898697,63.2001763 C327.89791,63.2001763 320.684141,68.8195006 318.656307,72.6326136 L318.656307,71.8967497 L318.224146,59.6546503 L328.994935,52.9649785 C332.181336,55.2767101 336.546231,55.0052344 339.425416,52.3162525 C342.3046,49.6272705 342.898238,45.2677806 340.843989,41.8986882 C338.78974,38.5295957 334.658275,37.0868338 330.971319,38.4510221 C327.284364,39.8152104 325.066153,43.6073778 325.670618,47.512896 L318.05793,52.2291146 L317.526039,36.6087309 L328.130613,30.0863009 C331.850403,32.8771952 337.026428,32.5706493 340.395126,29.3599449 C343.763824,26.1492405 344.348254,20.9655014 341.779923,17.0771512 C339.211592,13.1888011 334.235333,11.7234851 329.988749,13.6051065 C325.742166,15.4867279 323.456793,20.169605 324.573593,24.7011151 L317.260094,29.250092 L316.69496,16.8741991 C320.593472,15.3598479 322.865249,11.2644893 322.099766,7.13089178 C321.334283,2.99729423 317.749049,0 313.570101,0 C309.391153,0 305.80592,2.99729423 305.040437,7.13089178 C304.274954,11.2644893 306.546731,15.3598479 310.445243,16.8741991 L309.647406,42.5625388 L301.702287,37.4783883 C302.776048,32.6849846 300.242068,27.8143256 295.715352,25.9706709 C291.188635,24.1270161 286.000913,25.8527575 283.458523,30.0480132 C280.916132,34.2432689 281.767028,39.6738206 285.468901,42.8785674 C289.170775,46.0833142 294.634558,46.1194395 298.37797,42.9639192 L309.447947,50.0215229 L308.882813,68.9198457 L308.882813,68.9198457 L308.583625,78.9543534 L308.583625,130.096894 C308.583625,130.595666 308.985479,131 309.481191,131 L317.791985,131 C318.287697,131 318.68955,130.595666 318.68955,130.096894 L318.68955,96.9495706 C318.68955,88.2752961 320.296304,82.0539014 323.509811,78.2853862 C326.982841,74.3230991 331.925107,71.9758542 337.172757,71.7964046 L338.701943,71.7964046 C342.92762,71.4373828 347.106755,72.8957396 350.204082,75.8102077 C352.910741,79.2450138 354.228627,83.5814584 353.894074,87.951962 L353.894074,120.831699 L353.894074,120.831699 L353.894074,130.096894 C353.894074,130.595666 354.295928,131 354.79164,131 L363.102434,131 C363.598146,131 364,130.595666 364,130.096894 L364,87.5505817 C363.933514,79.0323996 361.894599,72.8444532 357.883256,68.9867424 Z" id="Path" fill="#FFFFFF"></path>
            <circle id="Oval" fill="#4DA3DC" cx="313.5" cy="8.5" r="5.5"></circle>
            <circle id="Oval" fill="#4DA3DC" cx="333" cy="46" r="5"></circle>
            <ellipse id="Oval" fill="#4DA3DC" transform="translate(334.019107, 22.688709) rotate(-25.970000) translate(-334.019107, -22.688709) " cx="334.019107" cy="22.6887087" rx="5.64114889" ry="5.6407557"></ellipse>
            <circle id="Oval" fill="#4DA3DC" cx="292" cy="35" r="6"></circle>
        </g>
    </g>
</svg>