<?xml version="1.0" encoding="UTF-8"?>
<svg width="472px" height="502px" viewBox="0 0 472 502" version="1.1" xmlns="http://www.w3.org/2000/svg" xmlns:xlink="http://www.w3.org/1999/xlink">
    <!-- Generator: Sketch 62 (91390) - https://sketch.com -->
    <title>Untitled 4</title>
    <desc>Created with Sketch.</desc>
    <g id="Page-1" stroke="none" stroke-width="1" fill="none" fill-rule="evenodd">
        <g id="knowledgebase-community" transform="translate(1.000000, 0.000000)">
            <g id="Group" transform="translate(8.000000, 415.000000)" fill="#FFFFFF" fill-rule="nonzero" stroke="#BDC5D1" stroke-linecap="round" stroke-linejoin="round" stroke-width="1.8843">
                <rect id="Rectangle" x="0.3" y="0.7" width="121.1" height="18"></rect>
                <line x1="19.1" y1="6" x2="19.1" y2="13.7" id="Path"></line>
                <line x1="109" y1="6" x2="109" y2="12.9" id="Path"></line>
                <line x1="114.7" y1="6" x2="114.7" y2="12.9" id="Path"></line>
                <line x1="69.1" y1="9.9" x2="99.6" y2="9.9" id="Path"></line>
            </g>
            <g id="Group" transform="translate(0.000000, 392.000000)" fill="#FFFFFF" fill-rule="nonzero" stroke="#BDC5D1" stroke-linecap="round" stroke-linejoin="round" stroke-width="1.8843">
                <rect id="Rectangle" x="0.5" y="0" width="121.1" height="23.1"></rect>
                <line x1="19.2" y1="6.9" x2="19.2" y2="16.7" id="Path"></line>
                <line x1="109.1" y1="6.9" x2="109.1" y2="15.7" id="Path"></line>
                <line x1="114.9" y1="6.9" x2="114.9" y2="15.7" id="Path"></line>
                <line x1="69.3" y1="11.8" x2="99.7" y2="11.8" id="Path"></line>
            </g>
            <g id="Group" transform="translate(6.000000, 473.000000)" fill="#FFFFFF" fill-rule="nonzero" stroke="#BDC5D1" stroke-linecap="round" stroke-linejoin="round" stroke-width="2.3383">
                <rect id="Rectangle" x="0.8" y="0.1" width="121.1" height="27.7"></rect>
                <line x1="19.5" y1="8.4" x2="19.5" y2="20.2" id="Path"></line>
                <line x1="109.4" y1="8.4" x2="109.4" y2="19" id="Path"></line>
                <line x1="115.2" y1="8.4" x2="115.2" y2="19" id="Path"></line>
                <line x1="69.6" y1="14.3" x2="100" y2="14.3" id="Path"></line>
            </g>
            <g id="Group" transform="translate(25.000000, 454.000000)" fill="#FFFFFF" fill-rule="nonzero" stroke="#BDC5D1" stroke-linecap="round" stroke-linejoin="round" stroke-width="1.8843">
                <rect id="Rectangle" x="0.5" y="0" width="121.1" height="18"></rect>
                <line x1="19.3" y1="5.3" x2="19.3" y2="13" id="Path"></line>
                <line x1="109.2" y1="5.3" x2="109.2" y2="12.2" id="Path"></line>
                <line x1="115" y1="5.3" x2="115" y2="12.2" id="Path"></line>
                <line x1="69.3" y1="9.2" x2="99.8" y2="9.2" id="Path"></line>
            </g>
            <g id="Group" transform="translate(0.000000, 434.000000)" fill="#FFFFFF" fill-rule="nonzero" stroke="#BDC5D1" stroke-linecap="round" stroke-linejoin="round" stroke-width="1.8843">
                <rect id="Rectangle" x="0.1" y="0.8" width="121.1" height="18"></rect>
                <line x1="18.9" y1="6.2" x2="18.9" y2="13.9" id="Path"></line>
                <line x1="108.7" y1="6.2" x2="108.7" y2="13.1" id="Path"></line>
                <line x1="114.5" y1="6.2" x2="114.5" y2="13.1" id="Path"></line>
                <line x1="68.9" y1="10" x2="99.4" y2="10" id="Path"></line>
            </g>
            <path d="M332.4,164.9 C332.4,164.9 328.9,186.6 349.5,184.5 C370,182.4 384.2,182.6 384.2,182.6 L379,140.8 L332.4,164.9 Z" id="Path" fill="#1E2022" fill-rule="nonzero"></path>
            <path d="M88.9,388 L88.9,388 C87.4,388.7 85.9,388.7 85.2,387.3 L6.7,246.7 C6,245.2 6.7,244.5 7.4,243.7 L7.4,243.7 C8.9,243 9.6,243.7 10.4,244.4 L88.9,385 C90.4,385.8 89.6,387.3 88.9,388 Z" id="Path" fill="#DFE2EC" fill-rule="nonzero"></path>
            <path d="M254.2,391.1 L87.1,391.1 C84.8,391.1 82.9,389.2 82.9,386.9 L82.9,386.9 C82.9,384.6 84.8,382.7 87.1,382.7 L254.2,382.7 C256.5,382.7 258.4,384.6 258.4,386.9 L258.4,386.9 C258.4,389.3 256.5,391.1 254.2,391.1 Z" id="Path" fill="#DFE2EC" fill-rule="nonzero"></path>
            <path d="M167.8,382.2 C167.8,382.2 177.3,357.4 220.7,366.6 C264.1,375.8 246,391.1 246,391.1 L182,385.9 L167.8,382.2 Z" id="Path" fill="#8E4626" fill-rule="nonzero"></path>
            <path d="M324.2,336.5 L221.7,366.8 C221.7,366.8 211.4,385.4 250.2,383.7 C289,382 332.7,364.6 332.7,364.6 L324.2,336.5 Z" id="Path" fill="#19A0FF" fill-rule="nonzero"></path>
            <path d="M324.2,336.5 L221.7,366.8 C221.7,366.8 211.4,385.4 250.2,383.7 C289,382 332.7,364.6 332.7,364.6 L324.2,336.5 Z" id="Path" fill="#1E2022" fill-rule="nonzero" opacity="0.1"></path>
            <path d="M367.8,183.1 C367.8,183.1 346.6,188.4 341.6,211.2 C336.6,234 325.9,264.1 315.3,332.5 C304.7,400.9 341.5,411.7 341.5,411.7 C341.5,411.7 393.6,429 420.3,426.7 C446.9,424.4 468.8,426.7 468.8,426.7 C468.8,426.7 474.9,314.8 462.3,263.4 C449.7,212 438.1,186.3 410.4,173.9 L367.8,183.1 Z" id="Path" fill="#377DFF" fill-rule="nonzero"></path>
            <path d="M367.8,183.1 C367.8,183.1 338.7,206.6 372,201.8 C405.3,197 419,177.8 419,177.8 L410.3,173.8 L367.8,183.1 Z" id="Path" fill="#FFC107" fill-rule="nonzero"></path>
            <path d="M308.6,111.3 C308.6,111.3 312.6,112.3 310.5,120.3 C308.4,128.4 302.6,141.8 318.2,142.2 C318.2,142.2 327.2,171.9 340.2,169.6 C353.2,167.3 369.9,154.5 369.9,154.5 L369.9,188.4 C369.9,188.4 381.4,192.4 410.3,173.8 C410.3,173.8 395.9,136.1 385.2,128.9 L398,114.2 L374.3,84 L298.9,84 C298.9,84 294.8,97.2 308.6,111.3 Z" id="Path" fill="#8E4626" fill-rule="nonzero"></path>
            <path d="M302.5,91.4 C302.5,91.4 315.8,107.5 339,104.4 C362.3,101.3 365.8,106.7 365.8,106.7 C365.8,106.7 368.2,99 378.7,102.2 C389.2,105.5 390,121.9 385.5,125.1 C381,128.3 404.3,166.3 404.3,166.3 C404.3,166.3 469.2,143.2 446.2,108.1 C426,77.3 407.4,56.8 380.8,41.4 C372.8,36.8 363.5,34.9 354.3,35.9 C342.9,37.1 328,40.6 320.9,50.3 C312,62.4 299.5,69.1 293.1,71.9 C288.3,74 284.5,78.1 283.4,83.2 C281.9,90.4 285.3,100.6 307.4,110.7 C307.5,110.7 301.5,99.5 302.5,91.4 Z" id="Path" fill="#1E2022" fill-rule="nonzero"></path>
            <path d="M317.4,112 C317.4,112 319.6,107.7 327.6,109.6" id="Path" stroke="#1E2022" stroke-width="3.1093" stroke-linecap="round" stroke-linejoin="round"></path>
            <path d="M332.2,149.9 C332.2,149.9 328.8,153.6 325,154.2" id="Path" stroke="#1E2022" stroke-width="2.1749" stroke-linecap="round" stroke-linejoin="round"></path>
            <ellipse id="Oval" fill="#1E2022" fill-rule="nonzero" transform="translate(323.522840, 118.817560) rotate(-20.903410) translate(-323.522840, -118.817560) " cx="323.52284" cy="118.81756" rx="3.00005382" ry="5.10009149"></ellipse>
            <polygon id="Path" fill="#377DFF" fill-rule="nonzero" points="252.4 379.1 248.8 401.1 247.8 407.5 353.3 415.2 357.2 364.6"></polygon>
            <path d="M156,402.4 C156,402.4 124.1,416.1 132.5,444.4 C133.4,447.6 135.6,450.3 138.4,452 L176.5,474.9 L196.8,443.9 L156,402.4 Z" id="Path" fill="#292D30" fill-rule="nonzero"></path>
            <polygon id="Path" fill="#FFC107" fill-rule="nonzero" points="241.9 400.4 246 379.5 252.4 379.1 248.8 401.1"></polygon>
            <path d="M468.80172,426.6 C468.80172,426.6 470,493.3 409,496.4 C409,496.4 331.6,508.7 230,496.4 C230,496.4 121.5,511 157.2,484.1 C192.9,457.2 196.7,462.2 152.2,407.8 C152.2,407.8 151.8,398.6 172.1,387.5 C192.5,376.4 468.80172,426.6 468.80172,426.6 Z" id="Path" fill="#1E2022" fill-rule="nonzero"></path>
            <path d="M252.4,379.1 C252.4,379.1 317.6,417.7 358.1,311.9 C368.1,285.8 378.4,259.2 392.5,234.9 C396.4,228.1 400,218.9 408.1,216.3 C416.5,213.6 425.4,218.6 428.9,226.5 C432.2,233.9 431.9,242.4 432.5,250.3 C433.4,263.8 435.3,277.3 432.9,290.7 C430.7,303 425.8,314.8 418.5,325 C417.3,326.7 416.1,328.3 414.8,329.9 C384.1,367.5 366.7,407.8 306.3,399.4 C245.9,391 250.3,391.5 250.3,391.5 L252.4,379.1 Z" id="Path" fill="#19A0FF" fill-rule="nonzero"></path>
            <path d="M252.4,379.1 C252.4,379.1 317.6,417.7 358.1,311.9 C368.1,285.8 378.4,259.2 392.5,234.9 C396.4,228.1 400,218.9 408.1,216.3 C416.5,213.6 425.4,218.6 428.9,226.5 C432.2,233.9 431.9,242.4 432.5,250.3 C433.4,263.8 435.3,277.3 432.9,290.7 C430.7,303 425.8,314.8 418.5,325 C417.3,326.7 416.1,328.3 414.8,329.9 C384.1,367.5 366.7,407.8 306.3,399.4 C245.9,391 250.3,391.5 250.3,391.5 L252.4,379.1 Z" id="Path" fill="#1E2022" fill-rule="nonzero" opacity="0.1"></path>
            <polygon id="Path" fill="#E7EAF3" fill-rule="nonzero" points="419 177.7 419.2 178.5 418.7 178.2"></polygon>
            <path d="M374.7,109.8 C374.7,109.8 379.4,111.2 379.7,116.8" id="Path" stroke="#1E2022" stroke-width="3.1093" stroke-linecap="round" stroke-linejoin="round"></path>
            <ellipse id="Oval" stroke="#FFC107" stroke-width="1.55466677" fill-opacity="0.3" fill="#FFFFFF" fill-rule="nonzero" stroke-linecap="round" stroke-linejoin="round" transform="translate(320.487570, 119.900790) rotate(-15.177227) translate(-320.487570, -119.900790) " cx="320.48757" cy="119.90079" rx="4.59990167" ry="13.3997136"></ellipse>
            <line x1="324.9" y1="117.6" x2="367.2" y2="102" id="Path" stroke="#FFC107" stroke-width="1.5547" fill="#FFFFFF" fill-rule="nonzero" stroke-linecap="round" stroke-linejoin="round"></line>
            <path d="M315.1,116 C315.1,116 313,114.8 311.6,115.6" id="Path" stroke="#FFC107" stroke-width="1.5547" stroke-linecap="round" stroke-linejoin="round"></path>
            <path d="M288.9,27.6 C288.9,12.7 276.9,0.7 262,0.7 C247.1,0.7 235.1,12.7 235.1,27.6 C235.1,32.2 236.2,36.5 238.3,40.3 C245,55.2 262.7,66.5 262.7,66.5 L262.7,56 L262.7,54.5 C277.2,54.1 288.9,42.2 288.9,27.6 Z" id="Path" fill="#BDC5D1" fill-rule="nonzero" opacity="0.5"></path>
            <path d="M259.4,56 L259.4,66.5 C259.4,66.5 233.6,50.1 232.5,30.7 L259.4,30.7 L259.4,56 Z" id="Path" fill="#1992E8" fill-rule="nonzero"></path>
            <circle id="Oval" fill="#377DFF" fill-rule="nonzero" cx="258.7" cy="27.6" r="26.9"></circle>
            <path d="M258.7,14.3 L258.7,14.3 C256.7,14.3 255.2,16 255.4,18 L257.5,34.8 C257.7,36.2 259.7,36.2 259.9,34.8 L262,18 C262.2,16.1 260.7,14.3 258.7,14.3 L258.7,14.3 Z" id="Path" fill="#FFFFFF" fill-rule="nonzero"></path>
            <circle id="Oval" fill="#FFFFFF" fill-rule="nonzero" cx="258.7" cy="39.3" r="1.4"></circle>
        </g>
    </g>
</svg>